<?xml version="1.0" encoding="utf-8"?>
<!-- Generator: Adobe Illustrator 24.3.0, SVG Export Plug-In . SVG Version: 6.00 Build 0)  -->
<svg version="1.1" id="Capa_1" xmlns="http://www.w3.org/2000/svg" xmlns:xlink="http://www.w3.org/1999/xlink" x="0px" y="0px"
	 viewBox="0 0 4569.9 207.6" style="enable-background:new 0 0 4569.9 207.6;" xml:space="preserve">
<style type="text/css">
	.st0{fill:#F0F0F0;}
</style>
<path class="st0" d="M4569.9,0H2983.3c-4.5,0-8.9,0.9-13.2,2.4c-4,1.8-7.7,4.3-10.9,7.4l-56.7,46.9c0,0-12.9,10.5-23.4,13.2
	c-10.5,2.7-35.7,2.3-35.7,2.3h-462.9c0,0-13.4-0.3-22.6,1.2c-9.2,1.6-14.4,5.1-14.4,5.1l-59.9,49c0,0-17.3,14.4-23.3,17.4
	c-5.9,3-18.3,3.4-18.3,3.4h-532.9c0,0-16.9,0.5-24.2-3.2c-4.5-2.2-8.6-5-12.4-8.3l-60.8-49.3c0,0-12.3-10.1-18.2-12.6
	c-5.9-2.6-15.3-2.9-15.3-2.9L0,68.4v139.2h4569.9V0z"/>
</svg>
