<?xml version="1.0" encoding="utf-8"?>
<!-- Generator: Adobe Illustrator 25.0.0, SVG Export Plug-In . SVG Version: 6.00 Build 0)  -->
<svg version="1.1" id="Layer_1" xmlns="http://www.w3.org/2000/svg" xmlns:xlink="http://www.w3.org/1999/xlink" x="0px" y="0px"
	 viewBox="0 0 419 153" style="enable-background:new 0 0 419 153;" xml:space="preserve">
<style type="text/css">
	.st0{fill:url(#SVGID_1_);}
	.st1{fill:url(#SVGID_2_);}
	.st2{fill:#425166;}
</style>
<g>
	<g>
		<linearGradient id="SVGID_1_" gradientUnits="userSpaceOnUse" x1="1.0373" y1="36.2323" x2="98.1827" y2="105.829">
			<stop  offset="0" style="stop-color:#FF4477"/>
			<stop  offset="0.7361" style="stop-color:#FF6E41"/>
		</linearGradient>
		<path class="st0" d="M43.1,36.8v80.3l-21.8-12.6V49.4L43.1,36.8 M64.1,0.4L0.3,37.3v79.4l63.8,36.8V0.4L64.1,0.4z"/>
	</g>
	<g>
		<linearGradient id="SVGID_2_" gradientUnits="userSpaceOnUse" x1="48.4173" y1="25.5484" x2="133.4263" y2="123.2599">
			<stop  offset="0.3603" style="stop-color:#FF6E41"/>
			<stop  offset="0.8053" style="stop-color:#FF9200"/>
		</linearGradient>
		<path class="st1" d="M98.3,36.8L120,49.4v55.1l-21.8,12.6V36.8 M77.3,0.4v153l63.8-36.8V37.3L77.3,0.4L77.3,0.4z"/>
	</g>
</g>
<g>
	<path class="st2" d="M233.2,20.7V38l0,0v95.8h-21V38h-50.6V20.7H233.2z"/>
	<path class="st2" d="M317.2,20.7v16.7H267v33.5h42.3v16.8H267v46.1h-21.2V20.7H317.2z"/>
	<path class="st2" d="M407.7,107.1c1.1,0,2.1,0.4,3,1.3l8.3,9c-4.6,5.7-10.2,10-16.9,13.1c-6.7,3-14.7,4.5-24.1,4.5
		c-8.4,0-15.9-1.4-22.6-4.3c-6.7-2.9-12.4-6.9-17.2-12c-4.7-5.1-8.4-11.2-10.9-18.3c-2.5-7.1-3.8-14.8-3.8-23.2
		c0-8.5,1.4-16.3,4.2-23.4c2.8-7.1,6.8-13.2,11.9-18.3c5.1-5.1,11.2-9.1,18.3-11.9c7.1-2.8,15-4.3,23.6-4.3c8.4,0,15.7,1.3,22,4
		c6.3,2.7,11.7,6.2,16.2,10.7l-7,9.8c-0.4,0.6-1,1.2-1.6,1.6c-0.7,0.5-1.6,0.7-2.7,0.7c-1.2,0-2.4-0.5-3.7-1.4
		c-1.3-0.9-2.8-2-4.8-3.1c-1.9-1.1-4.4-2.1-7.3-3c-2.9-0.9-6.7-1.4-11.2-1.4c-5.3,0-10.2,0.9-14.7,2.8c-4.5,1.9-8.3,4.5-11.5,7.9
		c-3.2,3.4-5.7,7.6-7.5,12.6c-1.8,4.9-2.7,10.5-2.7,16.6c0,6.4,0.9,12,2.7,17c1.8,5,4.2,9.1,7.3,12.5c3.1,3.4,6.7,6,10.9,7.8
		c4.2,1.8,8.7,2.7,13.5,2.7c2.9,0,5.5-0.2,7.8-0.5c2.3-0.3,4.5-0.8,6.4-1.5c2-0.7,3.8-1.6,5.6-2.6c1.7-1.1,3.5-2.4,5.2-4
		c0.5-0.5,1.1-0.8,1.6-1.1C406.4,107.3,407,107.1,407.7,107.1z"/>
</g>
</svg>
